<?xml version="1.0" encoding="utf-8"?>
<!-- Generator: Adobe Illustrator 27.7.0, SVG Export Plug-In . SVG Version: 6.00 Build 0)  -->
<svg version="1.1" id="Layer_1" xmlns="http://www.w3.org/2000/svg" xmlns:xlink="http://www.w3.org/1999/xlink" x="0px" y="0px"
	 viewBox="0 0 118 89.3" style="enable-background:new 0 0 118 89.3;" xml:space="preserve">
<style type="text/css">
	.st0{stroke:#FFFFFF;stroke-miterlimit:10;}
	.st1{fill:#FFFFFF;}
</style>
<rect x="-103" y="-143" class="st0" width="371" height="348"/>
<g>
	<g>
		<g>
			<path class="st1" d="M-404.1,54.9h14.9V58h-11.3v5.2h10.1v3.2h-10.1v5.4h11.5V75h-15V54.9z"/>
			<path class="st1" d="M-385.1,72l2.1-2.5c1.9,1.7,3.8,2.6,6.3,2.6c2.2,0,3.6-1,3.6-2.5v-0.1c0-1.4-0.8-2.2-4.5-3.1
				c-4.3-1-6.7-2.3-6.7-6v-0.1c0-3.4,2.9-5.8,6.8-5.8c2.9,0,5.2,0.9,7.3,2.5l-1.9,2.7c-1.8-1.3-3.6-2.1-5.4-2.1
				c-2.1,0-3.3,1.1-3.3,2.4v0.1c0,1.6,0.9,2.2,4.8,3.2c4.2,1,6.4,2.6,6.4,5.9v0.1c0,3.8-2.9,6-7.2,6
				C-379.8,75.2-382.7,74.2-385.1,72z"/>
			<path class="st1" d="M-359.3,58.1h-6.4v-3.3h16.3v3.3h-6.4V75h-3.6L-359.3,58.1L-359.3,58.1z"/>
			<path class="st1" d="M-337.4,54.7h3.3l8.8,20.2h-3.7l-2-4.9h-9.5l-2.1,4.9h-3.6L-337.4,54.7z M-332.4,67l-3.5-8l-3.4,8H-332.4z"
				/>
			<path class="st1" d="M-315.8,58.1h-6.4v-3.3h16.3v3.3h-6.4V75h-3.6L-315.8,58.1L-315.8,58.1z"/>
			<path class="st1" d="M-301.1,54.9h14.9V58h-11.3v5.2h10.1v3.2h-10.1v5.4h11.5V75h-15L-301.1,54.9L-301.1,54.9z"/>
		</g>
	</g>
	<g>
		<path class="st1" d="M-367.9-234.4c0,0,3.5-0.4,6.3,1.4c2.8,1.9,3.6,3.1,4,3.9c0.4,0.8,0.5,1.2,0.8,1.2c0.4,0,0.7-0.4,0.7-1.6
			c0-1.2,0.2-2.5,1.6-2.4c1.4,0.1,2.8,0.5,3.7-0.8c0.9-1.2,0.2-2.8,0.2-2.8s0.6-0.6,0.6-0.8c0-0.2,0-0.5,0-0.5s0.4-0.2,0.4-0.4
			c0.1-0.2-0.3-0.3-0.1-1.4c0,0,0.8,0,1.1,0c0.3,0,0.6-0.2,0.6-0.5c0-0.3,0-2.3-0.2-3.3c-0.2-1-0.5-1.2-0.7-1.4s-0.6-0.5-0.2-1.1
			c0.3-0.6,0.5-0.6,0.5-0.6s1.8-0.2,6.7,1.7c4.9,1.9,5.6,1,3.8-1.1c-1.8-2-4-4.4-7.3-10.1c-3.2-5.7-6.2-12.7-12.4-12.7
			s-8.4,4.8-9.8,8.6c-1.4,3.8-3.3,9.3-5.2,12.1c-2,2.8-2.6,3.8-3.9,4.9c-1.3,1.1-1.5,2.8,0.8,2.2c2.3-0.6,6.3-3.5,9.5-3.5
			c0,0,0.8,2.2,1.2,3c0,0-0.7-0.5-0.9-0.4c0,0-0.2,0.3-0.5,2.1C-366.9-236.9-367-236.4-367.9-234.4z"/>
		<g>
			<path class="st1" d="M-361.3-219.3c0,0-1.9-1.3-2.6-2.2s-0.6-3-1.2-3.2c-0.6-0.1-1,0.4-1,0.4c-0.8-0.4-0.3-2.9-1.3-3
				c-1.1-0.1-1.2,0.9-1.2,0.9c-1-0.5-0.4-1.9-1.5-1.9c-1.1,0-1,1.3-1,1.3c-0.7-0.3-0.5-1.7-1.6-1.5c-1.1,0.2-0.4,1.8-0.4,1.8
				c-0.5,0.1-0.4-0.7-1.1-1c-0.7-0.3-1.4,0.5-1,1.3c0.3,0.8,1.1,0.6,1.1,0.6s-0.4,0.2-0.5,0.6c-0.1,0.4,0.4,1,1.1,1
				c0.7,0,1,0.1,1,0.1s-0.5,0.4-0.4,0.8c0,0.5,0.4,0.8,1.3,0.7c0.8-0.1,1.3,0,1.3,0s-0.4,0.5,0,0.9c0.4,0.4,1,0.2,2,0
				c0.9-0.2,1.1,0.1,1.1,0.1c-0.4-0.1-1.2,0.7-0.1,1.2c1.1,0.5,1.6-0.3,2.4-0.1c0.7,0.2,1.5,0.6,1.5,0.6c-2.3,0.2-4.4,1.4-4.4,1.4
				c-0.2-0.2-0.4-0.3-0.3-0.9c0.1-0.5,0.1-1-0.1-1.2c-0.2-0.2-0.5,0.3-0.5,0.3s-3.5-2.4-4.5-0.6s2.4,3.5,2.4,3.5s-0.2,0.2-0.2,0.4
				c0,0.2,0.3,0.3,0.8,0.2c0.5-0.1,0.7,0.1,0.7,0.1c-0.9,1.1-0.9,2.2-0.4,2.3c0.5,0.1,0.8-0.8,1.2-1.3c3.4-3.6,7.1-2.9,7.1-2.9
				c1.3,0.5,1.9,1.3,1.9,1.3c-1,0.3-1.8-0.1-2.6-0.5c-0.8-0.4-2.2-0.6-2.3,0.3c-0.1,0.9,1.2,1.2,1.2,1.2s-0.8,0.2-1.6,0
				c-0.9-0.2-2.4-0.7-2.6,0.5c-0.2,1.1,1.5,1.3,1.5,1.3s-0.1,0.1-0.8,0.2c-0.7,0.1-2.2-0.6-2.5,0.4c-0.3,1,1,1.3,1,1.3
				c-0.7,0.5-1.1,1.4-0.8,1.9c0.3,0.5,1,0.2,1.2,0c0.2-0.2,0.8-0.5,0.8-0.5s-0.5,1.1,0.1,1.4c0.6,0.3,1.4,0,1.8-0.9
				c0.4-0.9,1.1-1.4,1.1-1.4s-0.5,1.2,0.2,1.4c0.6,0.3,1.5-0.2,1.6-0.9c0.2-0.7,0.6-0.9,0.6-0.9s0,1,1.1,0.9s1.5-1.4,1.6-2.9
				c0.1-1.6,0.8-1.8,0.8-1.8c0.2,0.6,0,1-0.2,1.6c-0.2,0.7-0.2,1.7,1.1,1.4c1.4-0.3,1.1-2.2,1.1-2.2s0.3,0.3,0.5,1.1
				c0.2,0.8-0.2,3,1.1,3c1.3-0.1,1.2-1.3,1.2-1.3s0.3,0.4,0.4,1c0.1,0.6,0.3,1.9,1.4,1.8s0.9-1.6,0.9-1.6s0.2,0.1,0.3,0.5
				c0.1,0.4,0.7,1.6,2,1.3c0.9-0.2,0.6-1.2,0.6-1.2s0.8,0.8,1.6,0.3c0.8-0.4,0.4-1.6-0.1-1.7c-0.5-0.2-0.8-0.5-0.8-0.5
				s0.9,0.2,1-0.6c0.1-0.8-0.6-1.2-1.4-1.3c-0.9,0-1.7-0.2-1.7-0.2s1.3-0.4,1.2-1.2c-0.2-0.8-1.4-0.8-2.3-0.5
				c-0.9,0.3-1.6,0.1-1.6,0.1s0.9-0.5,0.7-1.1c-0.2-0.6-1.1-0.3-2.1,0.2c-1,0.5-2.1,0.3-2.1,0.3c0.8-0.5,3.2-1.4,5.2-1.3
				c2.1,0.1,3.7,3.1,3.9,3.8c0.3,0.6,0.4,0.7,1,0.6c0.7-0.1-0.7-2.4-0.7-2.4c1.4,0.6,2.5,0.2,2.6,0.1c0.1-0.1-0.1-0.5-0.1-0.5
				s2.7-2.6,1.6-3.6c-1.1-1-3.8,1.2-3.8,1.2s-0.4-0.3-0.5-0.2c-0.5,0.4-0.6,2.1-0.6,2.1c-0.8-1.3-2.3-1.7-2.3-1.7s-1-0.1-0.3-0.5
				c0.7-0.4,1.4-0.7,2.2-0.7s2.1,0.2,2.3-0.4c0.2-0.7-0.2-0.9-0.2-0.9c0.3,0,0.6,0.2,1.2,0.4c0.6,0.2,1.4-0.2,1.5-0.9
				c0.1-0.7-0.7-0.9-0.7-0.9s0.5,0,1.1,0.1c0.6,0,1.5-0.4,1.4-1.2c-0.1-0.8-1.2-0.7-1.2-0.7c0.2-0.3,1.2-0.3,1.7-1.3
				c0.5-1-0.2-1.4-0.6-1.2c-0.4,0.1-0.7,0.2-0.7,0.2c0.2-0.1,0.7-1.1,0.2-1.5c-1.1-0.8-2.4,1.3-2.4,1.3s0.4-1.1-0.5-1.3
				c-0.9-0.2-1.5,0.6-1.7,1.6c-0.2,1-0.6,1.5-0.6,1.5s0-0.6-0.5-0.7c-0.5-0.1-1.1,0.4-1.3,1.7c-0.2,1.3-0.4,1.6-0.4,1.6
				s0-0.9-0.7-0.8c-1.2,0.1-0.4,1.7-0.5,2.5c-0.1,0.6-0.2,0.8-0.2,0.8c-0.6,0.3-0.9,0.6-0.9,0.6s-0.7-0.3-1-0.4
				c-1.1-0.8-0.9-2.6-1.3-3.5c-0.2-0.6-0.8-0.5-0.8-0.5c-0.9,0.1-0.9,1.2-0.9,1.2s-0.4-0.3-0.5-1.2c-0.1-0.9-0.3-2.3-1.4-2.1
				c-1.1,0.2-0.8,2-0.8,2c-0.9-0.4-0.7-2.8-2.2-2.4c-1.2,0.3-0.4,2.2-0.4,2.2s-0.4-0.1-0.6-0.5c-0.3-0.4-1-0.5-1.4-0.1
				c-0.5,0.5-0.1,1.4,0.3,1.5c0.4,0.1,0.7,0.4,0.7,0.4s-1.2,0-1.2,1c0,0.9,1,1,1.5,0.8c0.5-0.1,1-0.1,1-0.1s-1.1,0.7-0.8,1.5
				c0.3,0.8,1.7,0.5,2.3,0.2c0.6-0.3,1.1-0.4,1.1-0.4c-0.2,1,0.7,1.4,1.6,1.1c1-0.3,2.3,0.3,2.3,0.3s-0.1,0.2-1.2,0.4
				c-1.1,0.2-2.3,0.7-2.3,0.7c-0.6-1.4-0.9-2-1.1-2c-0.3-0.1-1.2,0.2-1.4,0.5c-0.1,0.2,0.2,0.6,0.2,0.6s-0.6,0-1.3-0.5"/>
		</g>
	</g>
</g>
<g>
	<path class="st1" d="M-609.6,54.9v1.2c-0.7,0.2-1.2,0.5-1.5,0.9c-0.4,0.4-0.7,1.1-0.9,2.1l-3.7,13.7l0.5,2l-2.5-0.1
		c-0.4,0-1.1,0-2.1,0.1l-4.1-13.5l-3,11.6l0.5,1.9c-1.4-0.1-2.2-0.1-2.4-0.1c-0.4,0-1.1,0-2.2,0.1l-4.9-16c-0.3-0.9-0.6-1.6-0.9-1.9
		c-0.3-0.4-0.7-0.6-1.3-0.7v-1.2c1.2,0.1,2.5,0.1,4.1,0.1c1.5,0,2.9,0,4.4-0.1v1.2c-0.9,0.1-1.4,0.5-1.4,1.3c0,0.5,0.1,1.2,0.4,2.1
		l3,10.8l3-11.4c-0.4-1.5-0.6-2.8-0.6-3.8v-0.2c1.2,0.1,2.1,0.1,2.6,0.1c0.6,0,1.4,0,2.3-0.1c0,1,0.2,2.3,0.7,3.9l3.4,11.5l2.9-11.5
		c0.1-0.5,0.2-0.9,0.2-1.2c0-0.8-0.6-1.3-1.7-1.4v-1.2c1.2,0.1,2.1,0.1,2.8,0.1C-611.6,55-610.7,54.9-609.6,54.9z"/>
	<path class="st1" d="M-589.9,54.9v4.2c-0.2,0-0.5,0-0.9,0c-0.3,0-0.6,0-0.8,0c-0.5-1.9-2-2.8-4.3-2.8h-4.5v7.4h3.6
		c1,0,1.7-0.2,2.1-0.6c0.4-0.4,0.7-1,0.7-1.9c0.2,0,0.5,0,0.7,0c0.2,0,0.5,0,0.7,0v6.3c-0.2,0-0.4,0-0.7,0c-0.2,0-0.5,0-0.7,0
		c-0.1-0.9-0.3-1.5-0.7-1.8c-0.4-0.3-1.1-0.5-2.1-0.5h-3.5v8.3h5c1,0,1.8-0.1,2.4-0.2c0.8-0.2,1.5-0.5,2-1.1
		c0.7-0.6,1.2-1.4,1.6-2.5c0.6,0.2,1.1,0.3,1.6,0.3l-1,4.8c-1.8-0.1-6.2-0.1-13.3-0.1c-2.3,0-4.2,0-5.7,0.1v-1.2
		c1.1,0,1.8-0.2,2-0.4c0.2-0.3,0.3-1.1,0.3-2.4V58.9c0-1.3-0.1-2.1-0.3-2.4c-0.2-0.3-0.9-0.4-2-0.4v-1.2c1.6,0.1,3.7,0.1,6.2,0.1
		C-597,55-593.1,55-589.9,54.9z"/>
	<path class="st1" d="M-567.7,69.9l-0.9,4.9c-2.8-0.1-6.6-0.1-11.5-0.1c-2.1,0-4,0-5.5,0.1v-1.2c1.1,0,1.8-0.2,2-0.4
		c0.2-0.3,0.3-1.1,0.3-2.4V58.9c0-1.3-0.1-2.1-0.3-2.4c-0.2-0.3-0.9-0.4-2-0.4v-1.2c1.2,0.1,2.8,0.1,4.9,0.1c2.1,0,3.7,0,4.9-0.1
		v1.2c-1.1,0-1.8,0.2-2,0.4c-0.2,0.3-0.3,1.1-0.3,2.4v14.5h1.3c2.3,0,4.1-0.3,5.1-0.8c1.1-0.5,1.9-1.5,2.6-3
		C-568.6,69.8-568.1,69.9-567.7,69.9z"/>
	<path class="st1" d="M-548.2,69.9l-0.9,4.9c-2.8-0.1-6.6-0.1-11.5-0.1c-2.1,0-4,0-5.5,0.1v-1.2c1.1,0,1.8-0.2,2-0.4
		c0.2-0.3,0.3-1.1,0.3-2.4V58.9c0-1.3-0.1-2.1-0.3-2.4c-0.2-0.3-0.9-0.4-2-0.4v-1.2c1.2,0.1,2.8,0.1,4.9,0.1c2.1,0,3.7,0,4.9-0.1
		v1.2c-1.1,0-1.8,0.2-2,0.4c-0.2,0.3-0.3,1.1-0.3,2.4v14.5h1.3c2.3,0,4.1-0.3,5.1-0.8c1.1-0.5,1.9-1.5,2.6-3
		C-549.1,69.8-548.6,69.9-548.2,69.9z"/>
	<path class="st1" d="M-539.3,58.9v11.9c0,1.3,0.1,2.1,0.3,2.4c0.2,0.3,0.9,0.4,2,0.4v1.2c-1.2-0.1-2.8-0.1-4.9-0.1
		c-2.1,0-3.7,0-4.9,0.1v-1.2c1.1,0,1.8-0.2,2-0.4c0.2-0.3,0.3-1.1,0.3-2.4V58.9c0-1.3-0.1-2.1-0.3-2.4c-0.2-0.3-0.9-0.4-2-0.4v-1.2
		c1.2,0.1,2.8,0.1,4.9,0.1c2.1,0,3.7,0,4.9-0.1v1.2c-1.1,0-1.8,0.2-2,0.4S-539.3,57.6-539.3,58.9z"/>
	<path class="st1" d="M-528,54.9l11.6,15.1V58.9c0-1.3-0.1-2.1-0.3-2.4c-0.2-0.3-0.9-0.4-2.1-0.4h-0.3v-1.2c1.4,0.1,2.5,0.1,3.4,0.1
		c0.9,0,2,0,3.4-0.1v1.2h-0.3c-1.1,0-1.8,0.1-2.1,0.4s-0.3,1.1-0.3,2.4v12.9l2.2,3l-2.9-0.1c-0.3,0-1.3,0-3.2,0.1l-11.8-15.4v11.4
		c0,1.3,0.1,2.1,0.3,2.4c0.2,0.3,0.9,0.4,2.1,0.4h0.3v1.2c-1.4-0.1-2.5-0.1-3.4-0.1c-0.9,0-2,0-3.4,0.1v-1.2h0.3
		c1.1,0,1.8-0.1,2.1-0.4c0.2-0.3,0.3-1.1,0.3-2.4V57.6l-2-2.7c1.5,0.1,2.5,0.1,3,0.1C-530.8,55-529.7,54.9-528,54.9z"/>
	<path class="st1" d="M-491.6,57v3.3c-0.6,0-1,0-1.3,0c-0.4,0-0.7,0-1.2,0c-0.7-3.1-2.4-4.6-4.9-4.6c-1.8,0-3.3,0.7-4.3,2.2
		c-1.1,1.6-1.7,4-1.7,7.1c0,3.3,0.7,5.7,2,7.3c1,1.1,2.1,1.7,3.5,1.7c1.2,0,2.3-0.3,3.3-0.9v-3.6c0-0.8-0.1-1.3-0.4-1.5
		c-0.2-0.2-0.8-0.4-1.6-0.4v-1.2c1.2,0.1,2.7,0.1,4.6,0.1c1.6,0,2.9,0,3.9-0.1v1.2c-0.6,0.2-1,0.4-1.2,0.6c-0.2,0.2-0.3,0.7-0.3,1.3
		v3.4c-2.6,1.6-5.4,2.4-8.5,2.4c-3.4,0-6-0.9-8-2.8c-2-1.8-3-4.4-3-7.5c0-3.8,1.4-6.6,4.2-8.4c2.1-1.3,4.4-2,7-2
		C-496.6,54.5-494,55.3-491.6,57z"/>
	<path class="st1" d="M-469.5,54.9l0.2,4.8c-0.2,0-0.5-0.1-0.8-0.1c-0.3,0-0.5,0-0.7,0.1c-0.7-2.3-1.9-3.4-3.8-3.4h-1.4v14.5
		c0,1.3,0.1,2.1,0.3,2.4c0.2,0.3,0.9,0.4,2,0.4v1.2c-1.2-0.1-2.8-0.1-4.9-0.1c-2.1,0-3.7,0-4.9,0.1v-1.2c1.1,0,1.8-0.2,2-0.4
		c0.2-0.3,0.3-1.1,0.3-2.4V56.3h-1.3c-1.9,0-3.2,1.1-3.9,3.4c-0.2,0-0.4-0.1-0.7-0.1c-0.3,0-0.6,0-0.8,0.1l0.2-4.8
		c2,0.1,5.3,0.1,9.9,0.1C-474.1,55-471.3,55-469.5,54.9z"/>
	<path class="st1" d="M-457.6,54.5c3.1,0,5.6,0.9,7.4,2.8c1.8,1.8,2.7,4.4,2.7,7.5c0,4-1.4,6.9-4.3,8.8c-1.7,1.1-3.7,1.6-5.9,1.6
		c-3.2,0-5.7-0.9-7.5-2.8c-1.9-1.8-2.8-4.3-2.8-7.4c0-3.3,0.9-5.9,2.7-7.7C-463.4,55.4-460.8,54.5-457.6,54.5z M-457.7,55.6
		c-1.8,0-3,0.8-3.7,2.3c-0.6,1.3-0.9,3.4-0.9,6.2c0,3.3,0.4,5.8,1.2,7.4c0.8,1.6,2,2.4,3.7,2.4c1.9,0,3.1-0.9,3.8-2.6
		c0.6-1.4,0.8-3.4,0.8-6C-452.9,58.8-454.5,55.6-457.7,55.6z"/>
	<path class="st1" d="M-438.7,54.9l11.6,15.1V58.9c0-1.3-0.1-2.1-0.3-2.4c-0.2-0.3-0.9-0.4-2.1-0.4h-0.3v-1.2
		c1.4,0.1,2.5,0.1,3.4,0.1c0.9,0,2,0,3.4-0.1v1.2h-0.3c-1.1,0-1.8,0.1-2.1,0.4c-0.2,0.3-0.3,1.1-0.3,2.4v12.9l2.2,3l-2.9-0.1
		c-0.3,0-1.3,0-3.2,0.1l-11.8-15.4v11.4c0,1.3,0.1,2.1,0.3,2.4c0.2,0.3,0.9,0.4,2.1,0.4h0.3v1.2c-1.4-0.1-2.5-0.1-3.4-0.1
		c-0.9,0-2,0-3.4,0.1v-1.2h0.3c1.1,0,1.8-0.1,2.1-0.4c0.2-0.3,0.3-1.1,0.3-2.4V57.6l-2-2.7c1.5,0.1,2.5,0.1,3,0.1
		C-441.4,55-440.4,54.9-438.7,54.9z"/>
</g>
<path class="st1" d="M-180.1,146.3h9.5v-3h-9.5v-5.1h10.7v-3h-14.3v19.6h14.7v-3.1h-11.1V146.3L-180.1,146.3z"/>
<path class="st1" d="M-203.8,151.8l2.1-2.4c1.6,1.5,3.8,2.5,6.2,2.5h0c2.1,0,3.5-0.9,3.5-2.4l0,0c0-1.4-0.8-2.1-4.4-2.9
	c-4.2-1-6.5-2.2-6.5-5.7l0,0c0-3.3,2.8-5.5,6.7-5.5c0.1,0,0.1,0,0.2,0c2.6,0,5,0.9,6.9,2.4l0,0l-1.9,2.5c-1.4-1.2-3.3-1.9-5.3-2h0
	c-2,0-3.2,1-3.2,2.3l0,0c0,1.5,0.9,2.1,4.6,2.9c4.1,1,6.3,2.4,6.3,5.6l0,0c0,3.6-2.9,5.7-7,5.7c0,0-0.1,0-0.2,0
	C-198.9,154.7-201.7,153.6-203.8,151.8L-203.8,151.8L-203.8,151.8z"/>
<path class="st1" d="M-225.4,146.3v-11.1h3.4v11c0,3.6,1.9,5.5,4.9,5.5c3.1,0,4.9-1.8,4.9-5.4v-11.1h3.4v11c0,5.8-3.3,8.7-8.4,8.7
	S-225.4,152-225.4,146.3L-225.4,146.3z"/>
<path class="st1" d="M-250.2,145.1L-250.2,145.1c0.2-5.3,4.6-9.5,9.9-9.5c5.3,0,9.7,4.2,9.9,9.5v0c-0.2,5.3-4.6,9.5-9.9,9.5
	C-245.7,154.6-250,150.4-250.2,145.1C-250.2,145.1-250.2,145.1-250.2,145.1z M-234,145.1L-234,145.1c0-0.1,0-0.2,0-0.3
	c0-3.6-2.9-6.5-6.4-6.5h0c-3.5,0-6.4,2.9-6.4,6.4c0,0.1,0,0.2,0,0.3v0c0,0.1,0,0.2,0,0.2c0,3.6,2.9,6.5,6.4,6.5h0c0,0,0,0,0.1,0
	c3.5,0,6.4-2.9,6.4-6.4C-234,145.3-234,145.2-234,145.1L-234,145.1L-234,145.1z"/>
<path class="st1" d="M-271.4,135.2h3.4v8.2h9.3v-8.2h3.4v19.6h-3.4v-8.3h-9.3v8.3h-3.4V135.2z"/>
<path class="st1" d="M-88.7,118.2h9.5v-3h-9.5v-5.1H-78v-3.1h-14.3v19.6h14.7v-3.1h-11.1V118.2z"/>
<path class="st1" d="M-108.4,119.1l-7.7-11.9h4l5.4,8.7l5.5-8.7h3.9l-7.7,11.8v7.8h-3.4L-108.4,119.1z"/>
<path class="st1" d="M-128.2,107.2h3.2l8.6,19.6h-3.6l-2-4.7h-9.3l-2,4.7h-3.5L-128.2,107.2z M-123.3,119.1l-3.4-7.8l-3.4,7.8
	H-123.3z"/>
<path class="st1" d="M-156.5,123.7l2.1-2.4c1.6,1.5,3.8,2.4,6.2,2.4l0,0l0,0c2.1,0,3.5-0.9,3.5-2.4l0,0c0-1.4-0.8-2.1-4.4-2.9
	c-4.2-1-6.5-2.2-6.5-5.7l0,0c0-3.3,2.8-5.5,6.7-5.5c0.1,0,0.2,0,0.4,0c2.6,0,5,0.9,6.8,2.4l0,0l-1.8,2.5c-1.5-1.2-3.3-1.9-5.3-2h0
	c-2,0-3.2,1-3.2,2.3l0,0c0,1.5,0.9,2.1,4.6,2.9c4.1,1,6.3,2.4,6.3,5.6l0,0c0,3.6-2.9,5.7-7,5.7c-0.1,0-0.2,0-0.4,0
	C-151.7,126.5-154.4,125.4-156.5,123.7L-156.5,123.7L-156.5,123.7z"/>
<path class="st1" d="M-192.9,107.3h7.2c6.1,0,10.3,4.2,10.3,9.7l0,0c0,0,0,0,0,0.1c0,5.4-4.4,9.7-9.7,9.7c-0.2,0-0.4,0-0.6,0h0h-7.2
	V107.3z M-185.7,123.8c0.1,0,0.3,0,0.4,0c3.5,0,6.3-2.8,6.3-6.3c0-0.1,0-0.2,0-0.3v0c0-0.1,0-0.3,0-0.4c0-3.5-2.9-6.4-6.4-6.4
	c-0.1,0-0.2,0-0.4,0h0h-3.8v13.3L-185.7,123.8z"/>
<path class="st1" d="M-208.3,107.1h-3.6v19.6h13.9v-3.1h-10.2V107.1z"/>
<path class="st1" d="M-228.1,118.3h9.5v-3h-9.5v-5.1h10.7v-3.1h-14.3v19.6h14.7v-3.1h-11.1V118.3z"/>
<path class="st1" d="M-240.4,107.1h3.6v19.6h-3.6V107.1z"/>
<path class="st1" d="M-259.8,107.2h14.6v3.1h-11.2v5.4h9.9v3.1h-9.9v8h-3.4V107.2z"/>
<path class="st1" d="M-274.5,110.4h-6.2v-3.2h15.8v3.2h-6.2v16.5h-3.4V110.4z"/>
<path class="st1" d="M-292.5,107.2h3.1l8.6,19.6h-3.6l-2-4.7h-9.3l-2,4.7h-3.6L-292.5,107.2z M-287.5,119.1l-3.4-7.8l-3.4,7.8
	H-287.5z"/>
<path class="st1" d="M-322.4,107.2h8.7c0.1,0,0.3,0,0.4,0c2,0,3.8,0.8,5.2,2l0,0c1,1.1,1.6,2.5,1.6,4.1c0,0.1,0,0.1,0,0.2v0
	c0,0,0,0.1,0,0.1c0,2.8-2,5.2-4.6,5.8l0,0l5.2,7.4h-4.1l-4.8-6.9h-4.3v6.9h-3.4L-322.4,107.2z M-314,117c2.4,0,4-1.3,4-3.3l0,0
	c0-2.1-1.5-3.2-4-3.2h-5v6.6L-314,117z"/>
<path class="st1" d="M-336.9,110.5h-6.2v-3.2h15.8v3.2h-6.2v16.4h-3.4V110.5z"/>
<path class="st1" d="M-363.1,123.8l2.1-2.4c1.6,1.5,3.8,2.5,6.2,2.5h0c2.1,0,3.5-1,3.5-2.4l0,0c0-1.4-0.8-2.1-4.4-2.9
	c-4.2-1-6.6-2.2-6.6-5.7l0,0c0-3.3,2.8-5.5,6.7-5.5c0.1,0,0.2,0,0.2,0c2.6,0,5,0.9,6.9,2.4l0,0l-1.8,2.5c-1.5-1.2-3.3-1.9-5.4-2h0
	c-2,0-3.2,1-3.2,2.3l0,0c0,1.5,0.9,2.1,4.6,2.9c4.1,1,6.3,2.4,6.3,5.6l0,0c0,3.6-2.9,5.7-7,5.7c-0.1,0-0.2,0-0.2,0
	C-358.2,126.7-361,125.6-363.1,123.8L-363.1,123.8L-363.1,123.8z"/>
<g>
	<g>
		<path class="st1" d="M-420.1-5.7h3.8l4.7,14.6l4.9-14.7h2.9l4.9,14.7l4.7-14.6h3.6l-6.8,20h-3L-405.4,0l-4.9,14.2h-3L-420.1-5.7z"
			/>
		<path class="st1" d="M-385.9-5.7h3.5v8.2h9.5v-8.2h3.5v19.8h-3.5V5.7h-9.5v8.4h-3.5V-5.7z"/>
		<path class="st1" d="M-356.2-5.9h3.2l8.7,20h-3.6l-2-4.8h-9.4l-2,4.8h-3.6L-356.2-5.9z M-351.2,6.2l-3.4-7.9l-3.4,7.9H-351.2z"/>
		<path class="st1" d="M-337.4-2.5h-6.2v-3.2h16.1v3.2h-6.2v16.6h-3.5L-337.4-2.5L-337.4-2.5z"/>
		<path class="st1" d="M-324.2,0.8c1.8-0.3,2.5-1.2,2.4-2.6h-1.5v-3.9h3.8v3.3c0,3.1-1.5,4.5-4.4,4.7L-324.2,0.8z"/>
		<path class="st1" d="M-315.3,11.1l2-2.5c1.9,1.7,3.8,2.5,6.2,2.5c2.1,0,3.5-1,3.5-2.5V8.5c0-1.5-0.8-2.1-4.5-3
			c-4.2-1-6.6-2.2-6.6-5.9v-0.1c0-3.4,2.8-5.8,6.7-5.8c2.9,0,5.2,0.9,7.2,2.5l-1.9,2.6c-1.8-1.4-3.6-2-5.4-2c-2,0-3.2,1.1-3.2,2.3
			v0.1c0,1.6,0.9,2.2,4.7,3.1c4.2,1,6.3,2.5,6.3,5.8v0.1c0,3.7-2.9,5.9-7.1,5.9C-310.1,14.4-313,13.3-315.3,11.1z"/>
		<path class="st1" d="M-286,4.2L-286,4.2c0-5.7,4.3-10.3,10.3-10.3s10.3,4.6,10.3,10.1v0.1c0,5.6-4.3,10.2-10.3,10.2
			S-286,9.8-286,4.2z M-268.9,4.2L-268.9,4.2c0-3.9-2.8-7.1-6.7-7.1c-3.9,0-6.6,3.1-6.6,7v0.1c0,3.8,2.8,7,6.7,7S-268.9,8-268.9,4.2
			z"/>
		<path class="st1" d="M-259.9-5.7h3.2l10.6,13.7V-5.7h3.4v19.8h-2.9l-10.9-14v14h-3.4V-5.7z"/>
	</g>
</g>
<rect x="-420.9" y="-6.7" style="fill:none;" width="302" height="61.6"/>
<text transform="matrix(1 0 0 1 -420.9177 14.832)" style="font-family:'Montserrat-SemiBold'; font-size:29px;">COMMUNITY</text>
<rect x="-473.4" y="-70.4" style="fill:none;" width="302" height="61.6"/>
<text transform="matrix(1 0 0 1 -473.416 -48.8762)" style="font-family:'Montserrat-SemiBold'; font-size:29px;">SUSTAINABILITY</text>
</svg>
