<?xml version="1.0" encoding="UTF-8"?>
<svg id="Layer_2" data-name="Layer 2" xmlns="http://www.w3.org/2000/svg" viewBox="0 0 202.07 20.88">
  <defs>
    <style>
      .cls-1 {
        fill: #fff;
      }
    </style>
  </defs>
  <g id="Layer_1-2" data-name="Layer 1">
    <g>
      <path class="cls-1" d="m0,10.44C0,4.38,4.64,0,10.88,0c3.31,0,6.15,1.19,8.04,3.39l-2.44,2.29c-1.48-1.6-3.31-2.38-5.42-2.38-4.21,0-7.25,2.96-7.25,7.14s3.05,7.14,7.25,7.14c2.12,0,3.94-.78,5.42-2.41l2.44,2.32c-1.89,2.2-4.73,3.39-8.06,3.39C4.64,20.88,0,16.5,0,10.44Z"/>
      <path class="cls-1" d="m21.98,10.44c0-6,4.64-10.44,10.94-10.44s10.94,4.41,10.94,10.44-4.64,10.44-10.94,10.44-10.94-4.44-10.94-10.44Zm18.07,0c0-4.15-3.05-7.14-7.14-7.14s-7.14,2.99-7.14,7.14,3.05,7.14,7.14,7.14,7.14-2.99,7.14-7.14Z"/>
      <path class="cls-1" d="m67.83,20.59l-.03-13.46-6.67,11.14h-1.68l-6.67-10.96v13.29h-3.6V.29h3.1l8.06,13.46L68.27.29h3.1l.03,20.3h-3.57Z"/>
      <path class="cls-1" d="m96.86,20.59l-.03-13.46-6.67,11.14h-1.68l-6.67-10.96v13.29h-3.6V.29h3.1l8.06,13.46L97.3.29h3.1l.03,20.3h-3.57Z"/>
      <path class="cls-1" d="m107.07,11.75V.29h3.77v11.31c0,4.18,1.89,5.98,5.16,5.98s5.13-1.8,5.13-5.98V.29h3.71v11.46c0,5.92-3.34,9.14-8.88,9.14s-8.9-3.22-8.9-9.14Z"/>
      <path class="cls-1" d="m149.5.29v20.3h-3.1l-11.2-13.75v13.75h-3.74V.29h3.1l11.2,13.75V.29h3.74Z"/>
      <path class="cls-1" d="m156.28.29h3.77v20.3h-3.77V.29Z"/>
      <path class="cls-1" d="m170.98,3.48h-6.73V.29h17.23v3.19h-6.73v17.11h-3.77V3.48Z"/>
      <path class="cls-1" d="m194.13,13.43v7.16h-3.77v-7.11l-7.98-13.2h4.03l5.95,9.89,6-9.89h3.71l-7.95,13.14Z"/>
    </g>
  </g>
</svg>