<?xml version="1.0" encoding="UTF-8"?>
<svg id="Layer_2" data-name="Layer 2" xmlns="http://www.w3.org/2000/svg" viewBox="0 0 285.45 47.8">
  <defs>
    <style>
      .cls-1 {
        fill: #fff;
      }
    </style>
  </defs>
  <g id="Layer_1-2" data-name="Layer 1">
    <path class="cls-1" d="m183.02,39.24h9.47v-2.99h-9.47v-5.1h10.68v-3.04h-14.32v19.59h14.72v-3.05h-11.07v-5.41h0Z"/>
    <path class="cls-1" d="m159.26,44.7l2.06-2.4c1.62,1.52,3.79,2.46,6.19,2.48h0c2.12,0,3.46-.94,3.46-2.39h0c0-1.35-.78-2.09-4.42-2.95-4.17-.97-6.52-2.17-6.52-5.69h0c0-3.27,2.8-5.53,6.69-5.53.07,0,.15,0,.23,0,2.61,0,5.01.9,6.9,2.41l-.02-.02-1.86,2.54c-1.45-1.16-3.29-1.89-5.29-1.96h-.01c-2.02,0-3.2,1-3.2,2.25h0c0,1.48.9,2.12,4.64,2.95,4.14.99,6.31,2.43,6.31,5.59h0c0,3.57-2.95,5.69-7,5.69h-.17c-3.07,0-5.87-1.12-8.02-2.98h.01s0,.02,0,.02Z"/>
    <path class="cls-1" d="m137.65,39.26v-11.12h3.42v10.99c0,3.58,1.86,5.46,4.93,5.46s4.9-1.83,4.9-5.38v-11.06h3.41v10.96c0,5.76-3.27,8.66-8.36,8.66s-8.29-2.89-8.29-8.49h0Z"/>
    <path class="cls-1" d="m112.83,38.02h0c.21-5.3,4.56-9.51,9.89-9.51s9.68,4.21,9.89,9.49v.02c-.21,5.3-4.56,9.51-9.89,9.51s-9.68-4.21-9.89-9.49c0,0,0-.02,0-.02Zm16.22,0h0c0-.07,0-.16,0-.25,0-3.57-2.87-6.46-6.43-6.5h0c-3.53,0-6.39,2.87-6.39,6.4,0,.1,0,.21,0,.31h0c0,.06,0,.14,0,.22,0,3.57,2.87,6.46,6.43,6.5h.07c3.53,0,6.4-2.87,6.4-6.4,0-.1,0-.2,0-.3h0s-.07.02-.07.02Z"/>
    <path class="cls-1" d="m91.65,28.15h3.45v8.17h9.35v-8.17h3.44v19.64h-3.44v-8.27h-9.35v8.27h-3.45v-19.64Z"/>
    <path class="cls-1" d="m274.37,11.16h9.47v-2.99h-9.47V3.06h10.68V0h-14.3v19.59h14.7v-3.05h-11.07v-5.39Z"/>
    <path class="cls-1" d="m254.69,12L246.98.1h4.03l5.44,8.7L261.95.1h3.91l-7.71,11.8v7.83h-3.45v-7.73Z"/>
    <path class="cls-1" d="m234.89.16h3.19l8.62,19.63h-3.64l-1.99-4.69h-9.26l-2.02,4.7h-3.52L234.89.16Zm4.93,11.88l-3.39-7.8-3.36,7.8h6.75Z"/>
    <path class="cls-1" d="m206.54,16.56l2.08-2.4c1.62,1.49,3.79,2.4,6.18,2.4h0c2.14,0,3.48-.94,3.48-2.39h0c0-1.35-.78-2.09-4.42-2.95-4.17-.97-6.53-2.17-6.53-5.69h0C207.32,2.27,210.12,0,214.01,0c.11,0,.24,0,.37,0,2.58,0,4.95.89,6.83,2.37l-.02-.02-1.84,2.54c-1.45-1.16-3.3-1.89-5.31-1.96h-.01c-2.01,0-3.19,1-3.19,2.25h0c0,1.48.9,2.12,4.64,2.95,4.14.99,6.29,2.43,6.29,5.59h0c0,3.57-2.88,5.69-6.99,5.69-.11,0-.25,0-.38,0-3,0-5.76-1.08-7.9-2.87h.02s0,.02,0,.02Z"/>
    <path class="cls-1" d="m170.21.21h7.21c6.09,0,10.32,4.23,10.32,9.75h0v.06c0,5.38-4.36,9.75-9.75,9.75-.2,0-.4,0-.6-.02h.03-7.21V.21Zm7.21,16.47c.12,0,.25.01.39.01,3.5,0,6.34-2.84,6.34-6.34,0-.1,0-.2,0-.29h0c0-.1.01-.24.01-.38,0-3.53-2.87-6.4-6.4-6.4-.12,0-.23,0-.35.01h.02-3.82v13.27l3.82.11Z"/>
    <path class="cls-1" d="m154.74.05h-3.64v19.59h13.89v-3.07h-10.25V.05Z"/>
    <path class="cls-1" d="m135,11.23h9.47v-2.99h-9.47V3.15h10.68V.1h-14.3v19.59h14.7v-3.05h-11.07v-5.41Z"/>
    <path class="cls-1" d="m122.66.02h3.64v19.59h-3.64V.02Z"/>
    <path class="cls-1" d="m103.24.16h14.58v3.14h-11.22v5.37h9.91v3.14h-9.88v7.99h-3.39V.16Z"/>
    <path class="cls-1" d="m88.61,3.3h-6.16V.11h15.76v3.19h-6.16v16.45h-3.44V3.3Z"/>
    <path class="cls-1" d="m70.61.13h3.14l8.62,19.64h-3.58l-1.99-4.67h-9.26l-2.02,4.72h-3.57L70.61.13Zm4.94,11.9l-3.39-7.8-3.36,7.8h6.75Z"/>
    <path class="cls-1" d="m40.68.11h8.67c.12,0,.26-.01.41-.01,2,0,3.82.75,5.2,1.99h0c1,1.05,1.61,2.47,1.61,4.04,0,.06,0,.13,0,.19h0v.13c0,2.81-1.96,5.16-4.59,5.75h-.04s5.25,7.45,5.25,7.45h-4.07l-4.78-6.86h-4.27v6.86h-3.37V.11Zm8.42,9.75c2.43,0,4-1.3,4-3.29h0c0-2.09-1.48-3.24-4.03-3.24h-4.97v6.59l5-.06Z"/>
    <path class="cls-1" d="m26.21,3.37h-6.16V.17h15.78v3.2h-6.16v16.44h-3.45V3.37Z"/>
    <path class="cls-1" d="m.02,16.7l2.06-2.39c1.62,1.51,3.79,2.45,6.19,2.48h0c2.06,0,3.54-.96,3.54-2.4h0c0-1.37-.78-2.11-4.42-2.95C3.16,10.43.8,9.2.8,5.73h0C.8,2.46,3.61.2,7.5.2c.07,0,.16,0,.25,0,2.61,0,5,.91,6.88,2.42l-.02-.02-1.84,2.46c-1.47-1.17-3.33-1.89-5.35-1.96h-.01c-2.02,0-3.19,1.02-3.19,2.27h0c0,1.48.89,2.12,4.64,2.95,4.14.97,6.29,2.42,6.29,5.57h0c0,3.57-2.95,5.69-7,5.69-.07,0-.15,0-.23,0-3.02,0-5.78-1.1-7.91-2.91h.02s0,.02,0,.02Z"/>
  </g>
</svg>