<?xml version="1.0" encoding="UTF-8"?>
<svg id="Layer_2" data-name="Layer 2" xmlns="http://www.w3.org/2000/svg" viewBox="0 0 236.55 21">
  <defs>
    <style>
      .cls-1 {
        fill: none;
        isolation: isolate;
      }

      .cls-2 {
        fill: #fff;
      }
    </style>
  </defs>
  <g id="Layer_1-2" data-name="Layer 1">
    <g class="cls-1">
      <path class="cls-2" d="m0,17.73l2.28-2.38c1.19,1.49,2.38,2.38,4.06,2.38,1.88,0,3.17-1.29,3.17-3.96V.59h3.67v13.27c0,2.38-.69,4.16-1.88,5.35-1.19,1.19-2.87,1.78-4.85,1.78-3.17,0-5.15-1.49-6.44-3.27Z"/>
      <path class="cls-2" d="m18.13,10.7h0C18.13,4.95,22.49.2,28.63.2s10.5,4.66,10.5,10.3v.1c0,5.65-4.36,10.4-10.5,10.4s-10.5-4.66-10.5-10.3Zm17.33,0h0c0-3.96-2.87-7.23-6.83-7.23s-6.74,3.17-6.74,7.13v.1c0,3.86,2.87,7.13,6.83,7.13,3.96-.1,6.74-3.27,6.74-7.13Z"/>
      <path class="cls-2" d="m44.38.59h9.01c2.28,0,4.06.59,5.25,1.78.89.89,1.39,1.98,1.39,3.37v.1c0,2.38-1.39,3.67-2.87,4.46,2.38.79,3.96,2.18,3.96,4.85v.1c0,3.57-2.97,5.55-7.43,5.55h-9.31V.59Zm12.08,5.65c0-1.58-1.29-2.58-3.57-2.58h-5.05v5.35h4.85c2.28,0,3.76-.89,3.76-2.77h0Zm-2.97,5.75h-5.65v5.55h5.84c2.38,0,3.86-.99,3.86-2.77v-.1c.1-1.58-1.29-2.67-4.06-2.67Z"/>
      <path class="cls-2" d="m74.79,10.7h0c0-5.75,4.36-10.5,10.5-10.5s10.5,4.66,10.5,10.3v.1c0,5.65-4.36,10.4-10.5,10.4s-10.5-4.66-10.5-10.3Zm17.33,0h0c0-3.96-2.87-7.23-6.83-7.23s-6.74,3.17-6.74,7.13v.1c0,3.86,2.87,7.13,6.83,7.13,3.96-.1,6.74-3.27,6.74-7.13Z"/>
      <path class="cls-2" d="m101.14.59h7.92c4.75,0,7.63,2.67,7.63,6.74v.1c0,4.56-3.67,6.83-8.02,6.83h-3.96v6.44h-3.57s0-20.11,0-20.11Zm7.63,10.4c2.67,0,4.36-1.49,4.36-3.57v-.1c0-2.38-1.68-3.57-4.36-3.57h-4.06v7.23s4.06,0,4.06,0Z"/>
      <path class="cls-2" d="m121.25.59h14.96v3.17h-11.39v5.25h10.1v3.17h-10.1v5.45h11.49v3.17h-15.06V.59h0Z"/>
      <path class="cls-2" d="m141.45.59h3.27l10.8,13.87V.59h3.47v20.11h-2.97l-11.09-14.36v14.26h-3.47V.59Z"/>
      <path class="cls-2" d="m165.33.59h3.57v20.11h-3.57V.59Z"/>
      <path class="cls-2" d="m175.23.59h3.27l10.8,13.87V.59h3.47v20.11h-2.97l-11.09-14.26v14.26h-3.47V.59Z"/>
      <path class="cls-2" d="m198.01,10.7h0c0-5.65,4.36-10.5,10.4-10.5,3.47,0,5.65.99,7.73,2.77l-2.28,2.67c-1.58-1.29-3.07-2.18-5.65-2.18-3.67,0-6.54,3.27-6.54,7.13v.1c0,4.16,2.77,7.23,6.83,7.23,1.88,0,3.67-.59,4.85-1.49v-3.96h-5.05v-3.07h8.52v8.42c-1.98,1.68-4.85,3.17-8.42,3.17-6.24,0-10.4-4.46-10.4-10.3Z"/>
      <path class="cls-2" d="m221.09,17.73l2.08-2.58c1.88,1.68,3.86,2.58,6.34,2.58,2.18,0,3.57-.99,3.57-2.58v-.1c0-1.49-.79-2.18-4.56-3.07-4.26-.99-6.74-2.28-6.74-6.04v-.1c0-3.47,2.87-5.84,6.83-5.84,2.97,0,5.25.89,7.33,2.58l-1.88,2.67c-1.78-1.39-3.67-2.08-5.45-2.08-2.08,0-3.27,1.09-3.27,2.38v.1c0,1.58.89,2.28,4.75,3.17,4.26.99,6.44,2.58,6.44,5.84v.1c0,3.76-2.97,6.04-7.23,6.04-2.97.2-5.84-.89-8.22-3.07Z"/>
    </g>
  </g>
</svg>