<?xml version="1.0" encoding="UTF-8"?>
<svg id="Layer_2" data-name="Layer 2" xmlns="http://www.w3.org/2000/svg" viewBox="0 0 262.57 20.88">
  <defs>
    <style>
      .cls-1 {
        fill: #fff;
      }
    </style>
  </defs>
  <g id="Layer_1-2" data-name="Layer 1">
    <g>
      <path class="cls-1" d="m0,18.45l1.31-2.93c1.62,1.31,4.21,2.23,6.7,2.23,3.16,0,4.5-1.13,4.5-2.64C12.5,10.73.44,13.6.44,6.06.44,2.78,3.05,0,8.62,0c2.44,0,4.99.64,6.76,1.8l-1.19,2.93c-1.83-1.07-3.83-1.6-5.6-1.6-3.13,0-4.41,1.22-4.41,2.76,0,4.32,12.04,1.51,12.04,8.96,0,3.25-2.64,6.03-8.21,6.03-3.16,0-6.32-.99-8.01-2.44Z"/>
      <path class="cls-1" d="m21.11,11.75V.29h3.77v11.31c0,4.18,1.89,5.98,5.16,5.98s5.13-1.8,5.13-5.98V.29h3.71v11.46c0,5.92-3.34,9.14-8.88,9.14s-8.9-3.22-8.9-9.14Z"/>
      <path class="cls-1" d="m43.79,18.45l1.31-2.93c1.62,1.31,4.21,2.23,6.7,2.23,3.16,0,4.5-1.13,4.5-2.64,0-4.38-12.07-1.51-12.07-9.05,0-3.28,2.61-6.06,8.18-6.06,2.44,0,4.99.64,6.76,1.8l-1.19,2.93c-1.83-1.07-3.83-1.6-5.6-1.6-3.13,0-4.41,1.22-4.41,2.76,0,4.32,12.04,1.51,12.04,8.96,0,3.25-2.64,6.03-8.21,6.03-3.16,0-6.32-.99-8.01-2.44Z"/>
      <path class="cls-1" d="m68.9,3.48h-6.73V.29h17.23v3.19h-6.73v17.11h-3.77V3.48Z"/>
      <path class="cls-1" d="m95.73,15.9h-10.15l-2,4.7h-3.89L88.83.29h3.71l9.17,20.3h-3.94l-2.03-4.7Zm-1.25-2.96l-3.83-8.88-3.8,8.88h7.63Z"/>
      <path class="cls-1" d="m105.62.29h3.77v20.3h-3.77V.29Z"/>
      <path class="cls-1" d="m134.24.29v20.3h-3.1l-11.2-13.75v13.75h-3.74V.29h3.1l11.2,13.75V.29h3.74Z"/>
      <path class="cls-1" d="m154.19,15.9h-10.15l-2,4.7h-3.89L147.29.29h3.71l9.17,20.3h-3.94l-2.03-4.7Zm-1.25-2.96l-3.83-8.88-3.8,8.88h7.63Z"/>
      <path class="cls-1" d="m182.12,15.08c0,3.48-2.73,5.51-7.95,5.51h-10.09V.29h9.51c4.87,0,7.48,2.06,7.48,5.28,0,2.09-1.04,3.63-2.61,4.47,2.18.7,3.65,2.41,3.65,5.05Zm-14.27-11.83v5.6h5.34c2.61,0,4.09-.93,4.09-2.78s-1.48-2.81-4.09-2.81h-5.34Zm10.47,11.46c0-2.03-1.54-2.93-4.38-2.93h-6.09v5.86h6.09c2.84,0,4.38-.9,4.38-2.93Z"/>
      <path class="cls-1" d="m187.48.29h3.77v20.3h-3.77V.29Z"/>
      <path class="cls-1" d="m198.07.29h3.77v17.11h10.62v3.19h-14.39V.29Z"/>
      <path class="cls-1" d="m216.77.29h3.77v20.3h-3.77V.29Z"/>
      <path class="cls-1" d="m231.48,3.48h-6.73V.29h17.23v3.19h-6.73v17.11h-3.77V3.48Z"/>
      <path class="cls-1" d="m254.62,13.43v7.16h-3.77v-7.11l-7.98-13.2h4.03l5.95,9.89,6-9.89h3.71l-7.95,13.14Z"/>
    </g>
  </g>
</svg>