<?xml version="1.0" encoding="UTF-8"?>
<svg id="Layer_2" data-name="Layer 2" xmlns="http://www.w3.org/2000/svg" viewBox="0 0 215.21 20.68">
  <defs>
    <style>
      .cls-1 {
        fill: #fff;
      }
    </style>
  </defs>
  <g id="Layer_1-2" data-name="Layer 1">
    <g>
      <path class="cls-1" d="m28.62.39v1.22c-.65.16-1.16.46-1.52.89-.37.44-.68,1.13-.93,2.08l-3.67,13.67.5,2.05-2.55-.09c-.43,0-1.14.03-2.13.09l-4.14-13.5-3.05,11.6.47,1.9c-1.38-.06-2.18-.09-2.4-.09-.39,0-1.12.03-2.19.09L2.13,4.27c-.28-.91-.57-1.55-.87-1.93-.31-.38-.73-.62-1.26-.74V.39c1.16.08,2.52.12,4.05.12s2.93-.04,4.35-.12v1.22c-.95.1-1.42.53-1.42,1.31,0,.48.13,1.17.38,2.08l3.05,10.83,2.96-11.36c-.39-1.48-.59-2.76-.59-3.83v-.24c1.22.06,2.09.09,2.6.09.59,0,1.37-.03,2.34-.09-.02,1.01.2,2.3.65,3.89l3.37,11.51,2.93-11.51c.14-.53.21-.95.21-1.25,0-.79-.55-1.27-1.66-1.42V.39c1.18.06,2.1.09,2.75.09.67,0,1.55-.03,2.63-.09Z"/>
      <path class="cls-1" d="m48.3.39v4.24c-.22-.02-.51-.03-.89-.03-.34,0-.61.01-.83.03-.51-1.9-1.95-2.85-4.32-2.85h-4.53v7.39h3.58c.97,0,1.66-.19,2.07-.56.41-.38.65-1.02.71-1.93.22.02.45.03.71.03.24,0,.46,0,.68-.03v6.29c-.22-.02-.44-.03-.68-.03-.22,0-.45.01-.71.03-.08-.87-.33-1.48-.74-1.82-.41-.35-1.12-.52-2.1-.52h-3.52v8.31h5.03c1.05,0,1.84-.06,2.37-.18.79-.18,1.47-.54,2.04-1.1.65-.61,1.17-1.44,1.57-2.49.55.2,1.07.31,1.57.33l-.98,4.81c-1.8-.08-6.23-.12-13.29-.12-2.31,0-4.22.04-5.74.12v-1.22c1.1-.02,1.77-.16,2-.43.23-.27.34-1.05.34-2.36V4.39c0-1.31-.11-2.09-.34-2.36-.23-.27-.89-.41-2-.43V.38c1.58.08,3.66.12,6.25.12,4.68,0,8.59-.04,11.75-.12Z"/>
      <path class="cls-1" d="m70.53,15.37l-.92,4.92c-2.8-.08-6.64-.12-11.51-.12-2.11,0-3.96.04-5.53.12v-1.22c1.1-.02,1.77-.16,2-.43.23-.27.34-1.05.34-2.36V4.39c0-1.31-.11-2.09-.34-2.36-.23-.27-.89-.41-2-.43V.38c1.18.08,2.81.12,4.88.12s3.7-.04,4.88-.12v1.22c-1.11.02-1.77.16-2,.43-.23.27-.34,1.05-.34,2.36v14.53h1.27c2.35,0,4.06-.26,5.13-.79,1.08-.52,1.93-1.51,2.56-2.95.67.12,1.19.18,1.57.18Z"/>
      <path class="cls-1" d="m89.98,15.37l-.92,4.92c-2.8-.08-6.64-.12-11.51-.12-2.11,0-3.96.04-5.53.12v-1.22c1.1-.02,1.77-.16,2-.43.23-.27.34-1.05.34-2.36V4.39c0-1.31-.11-2.09-.34-2.36-.23-.27-.89-.41-2-.43V.38c1.18.08,2.81.12,4.88.12s3.7-.04,4.88-.12v1.22c-1.11.02-1.77.16-2,.43-.23.27-.34,1.05-.34,2.36v14.53h1.27c2.35,0,4.06-.26,5.14-.79,1.08-.52,1.93-1.51,2.56-2.95.67.12,1.19.18,1.57.18Z"/>
      <path class="cls-1" d="m98.89,4.39v11.89c0,1.31.11,2.09.34,2.36.23.27.89.41,2,.43v1.22c-1.18-.08-2.81-.12-4.88-.12s-3.7.04-4.88.12v-1.22c1.1-.02,1.77-.16,2-.43.23-.27.34-1.05.34-2.36V4.39c0-1.31-.11-2.09-.34-2.36-.23-.27-.89-.41-2-.43V.39c1.18.08,2.81.12,4.88.12s3.7-.04,4.88-.12v1.22c-1.11.02-1.77.16-2,.43s-.34,1.05-.34,2.36Z"/>
      <path class="cls-1" d="m110.19.39l11.6,15.13V4.39c0-1.32-.11-2.12-.34-2.39s-.91-.4-2.06-.4h-.33V.39c1.36.06,2.51.09,3.43.09s2.01-.03,3.37-.09v1.22h-.33c-1.14,0-1.83.13-2.06.4s-.34,1.06-.34,2.39v12.9l2.25,3-2.93-.09c-.26,0-1.33.03-3.23.09l-11.78-15.43v11.42c0,1.32.11,2.12.34,2.39.23.27.91.4,2.06.4h.33v1.22c-1.36-.06-2.5-.09-3.4-.09s-2,.03-3.4.09v-1.22h.33c1.14,0,1.83-.13,2.06-.4.23-.27.34-1.06.34-2.39V3.06l-2.01-2.67c1.46.06,2.47.09,3.02.09.34,0,1.36-.03,3.08-.09Z"/>
      <path class="cls-1" d="m146.63,2.46v3.26c-.57-.02-1-.03-1.27-.03-.36,0-.74.01-1.15.03-.73-3.07-2.37-4.6-4.91-4.6-1.83,0-3.28.73-4.32,2.2-1.13,1.58-1.69,3.96-1.69,7.12s.67,5.71,2.01,7.27c.97,1.13,2.13,1.69,3.49,1.69,1.16,0,2.27-.29,3.31-.86v-3.62c0-.79-.12-1.3-.36-1.53-.24-.23-.78-.37-1.63-.43v-1.22c1.18.06,2.73.09,4.65.09,1.62,0,2.93-.03,3.94-.09v1.22c-.63.16-1.03.36-1.2.59-.17.24-.25.67-.25,1.31v3.41c-2.6,1.6-5.45,2.4-8.52,2.4-3.37,0-6.05-.92-8.02-2.77-1.97-1.85-2.96-4.36-2.96-7.52,0-3.8,1.41-6.59,4.23-8.39C134.05.66,136.39,0,138.99,0c2.64,0,5.19.82,7.64,2.46Z"/>
      <path class="cls-1" d="m168.71.39l.24,4.81c-.24-.04-.51-.06-.83-.06-.3,0-.53.02-.71.06-.65-2.27-1.94-3.41-3.85-3.41h-1.36v14.51c0,1.31.11,2.09.34,2.36.23.27.89.41,2,.43v1.22c-1.18-.08-2.81-.12-4.88-.12s-3.7.04-4.88.12v-1.22c1.1-.02,1.77-.16,2-.43.23-.27.34-1.05.34-2.36V1.78h-1.33c-1.88,0-3.18,1.14-3.91,3.41-.18-.04-.42-.06-.71-.06-.32,0-.58.02-.8.06l.18-4.81c1.99.08,5.28.12,9.86.12,3.73,0,6.5-.04,8.32-.12Z"/>
      <path class="cls-1" d="m180.64,0c3.14,0,5.62.92,7.44,2.77,1.82,1.85,2.74,4.36,2.74,7.52,0,4.01-1.42,6.93-4.26,8.75-1.7,1.09-3.67,1.63-5.92,1.63-3.16,0-5.67-.92-7.55-2.77-1.87-1.85-2.81-4.33-2.81-7.43,0-3.3.91-5.87,2.72-7.71,1.82-1.84,4.36-2.76,7.64-2.76Zm-.18,1.13c-1.78,0-3.02.78-3.73,2.34-.61,1.35-.92,3.4-.92,6.17,0,3.34.39,5.8,1.17,7.39.78,1.58,2,2.37,3.65,2.37,1.85,0,3.13-.86,3.82-2.58.55-1.36.83-3.37.83-6.02,0-6.45-1.61-9.67-4.82-9.67Z"/>
      <path class="cls-1" d="m199.52.39l11.6,15.13V4.39c0-1.32-.11-2.12-.34-2.39s-.91-.4-2.06-.4h-.33V.39c1.36.06,2.51.09,3.43.09s2.01-.03,3.37-.09v1.22h-.33c-1.14,0-1.83.13-2.06.4s-.34,1.06-.34,2.39v12.9l2.25,3-2.93-.09c-.26,0-1.33.03-3.23.09l-11.78-15.43v11.42c0,1.32.11,2.12.34,2.39.23.27.91.4,2.06.4h.33v1.22c-1.36-.06-2.5-.09-3.4-.09s-2,.03-3.4.09v-1.22h.32c1.15,0,1.83-.13,2.06-.4.23-.27.34-1.06.34-2.39V3.06l-2.01-2.67c1.46.06,2.47.09,3.02.09.34,0,1.36-.03,3.08-.09Z"/>
    </g>
  </g>
</svg>