<?xml version="1.0" encoding="UTF-8"?>
<svg id="Layer_2" data-name="Layer 2" xmlns="http://www.w3.org/2000/svg" viewBox="0 0 177.41 20.68">
  <defs>
    <style>
      .cls-1 {
        fill: #fff;
      }
    </style>
  </defs>
  <g id="Layer_1-2" data-name="Layer 1">
    <g>
      <path class="cls-1" d="m0,.59h3.8l4.68,14.63L13.36.49h2.93l4.88,14.73L25.85.59h3.61l-6.83,19.99h-3.02l-4.88-14.24-4.88,14.24h-3.02L0,.59Z"/>
      <path class="cls-1" d="m34.23.59h3.51v8.19h9.46V.59h3.51v19.8h-3.51v-8.39h-9.46v8.39h-3.51V.59Z"/>
      <path class="cls-1" d="m63.88.39h3.22l8.68,19.99h-3.61l-2.05-4.78h-9.36l-2.05,4.78h-3.61L63.88.39Zm4.97,12.09l-3.41-7.9-3.41,7.9h6.83Z"/>
      <path class="cls-1" d="m82.71,3.8h-6.24V.59h16.09v3.22h-6.24v16.58h-3.51V3.8h-.1Z"/>
      <path class="cls-1" d="m95.88,7.12c1.76-.29,2.54-1.17,2.44-2.63h-1.46V.59h3.8v3.32c0,3.12-1.46,4.49-4.39,4.68l-.39-1.46Z"/>
      <path class="cls-1" d="m104.75,17.46l2.05-2.54c1.85,1.66,3.8,2.54,6.24,2.54,2.15,0,3.51-.98,3.51-2.54v-.1c0-1.46-.78-2.15-4.49-3.02-4.19-.98-6.63-2.24-6.63-5.95v-.1c0-3.41,2.83-5.75,6.73-5.75,2.93,0,5.17.88,7.22,2.54l-1.85,2.63c-1.76-1.37-3.61-2.05-5.36-2.05-2.05,0-3.22,1.07-3.22,2.34v.1c0,1.56.88,2.24,4.68,3.12,4.19.98,6.34,2.54,6.34,5.75v.1c0,3.71-2.93,5.95-7.12,5.95-2.83.2-5.75-.88-8.1-3.02Z"/>
      <path class="cls-1" d="m134.11,10.53h0c0-5.66,4.29-10.34,10.34-10.34s10.34,4.58,10.34,10.14v.1c0,5.56-4.29,10.24-10.34,10.24s-10.34-4.58-10.34-10.14Zm17.07,0h0c0-3.9-2.83-7.12-6.73-7.12s-6.63,3.12-6.63,7.02v.1c0,3.8,2.83,7.02,6.73,7.02s6.63-3.22,6.63-7.02Z"/>
      <path class="cls-1" d="m160.15.59h3.22l10.63,13.65V.59h3.41v19.8h-2.93l-10.92-14.04v14.04h-3.41V.59Z"/>
    </g>
  </g>
</svg>