<?xml version="1.0" encoding="UTF-8"?>
<svg xmlns="http://www.w3.org/2000/svg" viewBox="0 0 118.02 20.68" class="estate">
  <defs>
    <style>
      .cls-1 {
        fill: #fff;
      }
    </style>
  </defs>
  <g id="Layer_1-2" data-name="Layer 1">
    <g>
      <path class="cls-1" d="m0,.29h14.86v3.16H3.52v5.23h10.05v3.16H3.52v5.4h11.48v3.16H0V.29Z"/>
      <path class="cls-1" d="m18.99,17.46l2.12-2.53c1.92,1.67,3.84,2.61,6.33,2.61,2.18,0,3.55-1,3.55-2.53v-.06c0-1.44-.8-2.21-4.52-3.07-4.27-1.03-6.67-2.3-6.67-6v-.06c0-3.45,2.86-5.83,6.85-5.83,2.92,0,5.24.89,7.27,2.53l-1.89,2.67c-1.8-1.35-3.61-2.07-5.44-2.07-2.06,0-3.26,1.06-3.26,2.38v.06c0,1.55.92,2.24,4.75,3.16,4.24,1.03,6.44,2.56,6.44,5.89v.06c0,3.76-2.95,6-7.16,6-3.06,0-5.96-1.06-8.36-3.22Z"/>
      <path class="cls-1" d="m44.74,3.56h-6.36V.29h16.27v3.27h-6.36v16.83h-3.55V3.56h0Z"/>
      <path class="cls-1" d="m66.63.14h3.26l8.82,20.25h-3.72l-2.03-4.85h-9.48l-2.06,4.85h-3.61L66.63.14Zm5.04,12.26l-3.47-8.04-3.44,8.04h6.9Z"/>
      <path class="cls-1" d="m88.23,3.56h-6.36V.29h16.27v3.27h-6.36v16.83h-3.55V3.56h0Z"/>
      <path class="cls-1" d="m103.01.29h14.86v3.16h-11.34v5.23h10.05v3.16h-10.05v5.4h11.48v3.16h-15.01V.29h0Z"/>
    </g>
  </g>
</svg>