<?xml version="1.0" encoding="UTF-8"?>
<svg id="Layer_2" data-name="Layer 2" xmlns="http://www.w3.org/2000/svg" viewBox="0 0 40.52 58.3">
    <g>
      <path fill="#fff"  d="m9.96,33.31s3.5-.42,6.29,1.44c2.79,1.86,3.55,3.14,3.97,3.94.42.8.49,1.17.84,1.17s.69-.35.73-1.57c.04-1.22.18-2.52,1.62-2.43,1.44.09,2.77.46,3.7-.78.93-1.24.19-2.8.19-2.8,0,0,.58-.59.6-.78.02-.19-.03-.53-.03-.53,0,0,.36-.21.42-.42.06-.21-.31-.32-.07-1.36,0,0,.76-.04,1.06-.04s.57-.21.58-.53c.01-.32,0-2.31-.22-3.3s-.45-1.22-.73-1.35c-.28-.13-.59-.51-.24-1.14.34-.63.49-.63.49-.63,0,0,1.76-.18,6.67,1.68,4.9,1.86,5.61.95,3.83-1.07-1.78-2.02-4.04-4.41-7.26-10.07C29.15,7.09,26.17,0,19.92,0s-8.36,4.85-9.76,8.6c-1.4,3.75-3.29,9.29-5.24,12.12-1.96,2.82-2.62,3.82-3.95,4.95-1.33,1.13-1.49,2.79.8,2.16,2.29-.63,6.31-3.47,9.51-3.51,0,0,.8,2.17,1.24,2.95,0,0-.75-.46-.91-.39-.03.02-.22.32-.45,2.15-.23,1.83-.36,2.31-1.2,4.3Z"/>
      <path fill="#fff"  d="m16.48,48.37s-1.87-1.26-2.58-2.17-.6-3.04-1.23-3.19c-.63-.15-1.05.42-1.05.42-.81-.38-.27-2.9-1.33-3.02-1.06-.12-1.25.92-1.25.92-1.03-.48-.4-1.9-1.54-1.9s-.96,1.35-.96,1.35c-.7-.29-.48-1.73-1.59-1.53-1.11.2-.44,1.76-.44,1.76-.49.07-.44-.69-1.1-1-.66-.31-1.38.55-1.05,1.33.33.78,1.1.65,1.1.65,0,0-.38.23-.47.65s.37,1.05,1.08,1.03,1.01.15,1.01.15c0,0-.48.38-.45.85s.45.81,1.26.7c.81-.12,1.27.04,1.27.04,0,0-.38.49-.01.92s1.05.18,1.98-.03,1.11.07,1.11.07c-.45-.07-1.16.66-.07,1.18,1.1.51,1.64-.28,2.38-.1.68.17,1.48.58,1.48.58-2.34.2-4.42,1.4-4.42,1.4-.21-.18-.4-.33-.32-.87.08-.54.12-1-.07-1.15-.18-.16-.52.27-.52.27,0,0-3.53-2.37-4.51-.65s2.45,3.49,2.45,3.49c0,0-.17.23-.19.42s.34.29.85.22c.51-.07.71.06.71.06-.91,1.14-.91,2.17-.44,2.27.47.11.79-.82,1.2-1.33,3.44-3.57,7.09-2.95,7.09-2.95,1.33.54,1.88,1.33,1.88,1.33-1.03.34-1.81-.05-2.58-.47s-2.2-.62-2.3.31,1.22,1.16,1.22,1.16c0,0-.78.19-1.64.03-.86-.17-2.37-.66-2.58.47-.21,1.14,1.52,1.34,1.52,1.34,0,0-.08.12-.79.19-.71.07-2.23-.57-2.52.44-.29,1.01.99,1.3.99,1.3-.74.5-1.13,1.38-.85,1.9.28.51.97.22,1.22,0,.25-.22.78-.51.78-.51,0,0-.48,1.09.12,1.4.6.31,1.4.02,1.79-.86.4-.88,1.08-1.37,1.08-1.37,0,0-.47,1.15.16,1.41.63.26,1.47-.17,1.64-.87s.57-.88.57-.88c0,0,0,.99,1.12.85s1.49-1.35,1.58-2.91c.09-1.56.8-1.82.8-1.82.17.6-.01.96-.23,1.64-.22.68-.25,1.72,1.13,1.4,1.38-.31,1.14-2.19,1.14-2.19,0,0,.32.29.47,1.11.16.82-.2,3.02,1.1,2.96,1.29-.06,1.17-1.3,1.17-1.3,0,0,.28.36.37.97.09.61.26,1.89,1.35,1.83,1.1-.07.94-1.55.94-1.55,0,0,.21.07.29.48.08.42.67,1.63,2,1.28.92-.24.59-1.21.59-1.21,0,0,.82.78,1.61.33.79-.45.37-1.55-.12-1.71-.5-.16-.81-.47-.81-.47,0,0,.85.18,1-.62.14-.81-.57-1.24-1.44-1.26-.87-.02-1.69-.22-1.69-.22,0,0,1.34-.37,1.18-1.19-.16-.83-1.38-.81-2.32-.5-.95.31-1.57.13-1.57.13,0,0,.95-.51.71-1.14-.23-.63-1.15-.28-2.11.17-.96.46-2.06.34-2.06.34.85-.54,3.19-1.39,5.25-1.33,2.06.07,3.66,3.12,3.93,3.76.27.64.39.75,1.05.6.65-.15-.71-2.4-.71-2.4,1.38.62,2.47.22,2.58.08.11-.14-.08-.52-.08-.52,0,0,2.68-2.58,1.58-3.62-1.1-1.04-3.76,1.21-3.76,1.21,0,0-.36-.28-.49-.19-.46.4-.56,2.06-.56,2.06-.76-1.3-2.26-1.74-2.26-1.74,0,0-1-.09-.33-.51.67-.42,1.44-.7,2.17-.69s2.08.22,2.32-.43c.23-.65-.19-.93-.19-.93.26-.03.59.23,1.22.4.63.17,1.42-.21,1.49-.9.07-.69-.71-.93-.71-.93,0,0,.52.02,1.11.06s1.53-.37,1.44-1.19c-.09-.83-1.15-.73-1.15-.73.22-.28,1.2-.33,1.69-1.34.49-1-.22-1.37-.61-1.23-.4.14-.72.21-.72.21.18-.12.74-1.06.15-1.51-1.07-.83-2.43,1.28-2.43,1.28,0,0,.4-1.06-.46-1.29s-1.45.64-1.7,1.63c-.25.99-.61,1.49-.61,1.49,0,0,0-.57-.54-.73-.49-.14-1.1.41-1.3,1.72-.21,1.31-.45,1.64-.45,1.64,0,0,.05-.92-.7-.85-1.22.12-.38,1.71-.48,2.52-.08.63-.17.81-.17.81-.57.26-.92.58-.92.58,0,0-.7-.27-1-.42-1.13-.8-.94-2.58-1.32-3.47-.23-.6-.78-.54-.78-.54-.89.1-.88,1.18-.88,1.18,0,0-.42-.31-.47-1.21-.06-.9-.29-2.3-1.38-2.07-1.1.23-.77,1.98-.77,1.98-.88-.37-.69-2.77-2.19-2.37-1.19.32-.36,2.2-.36,2.2,0,0-.38-.15-.64-.52-.26-.37-.97-.54-1.44-.06-.47.48-.09,1.4.3,1.48.39.08.71.41.71.41,0,0-1.24.04-1.19.99.04.95,1,.96,1.5.85.5-.12.99-.15.99-.15,0,0-1.07.69-.78,1.49.29.81,1.69.53,2.28.2.59-.33,1.12-.37,1.12-.37-.25,1.04.65,1.42,1.62,1.13.96-.29,2.32.28,2.32.28,0,0-.12.2-1.18.42s-2.31.75-2.31.75c-.56-1.4-.85-1.97-1.09-2.04-.32-.09-1.22.19-1.4.49-.1.18.23.6.23.6,0,0-.58-.03-1.31-.51"/>
    </g>
</svg>